<?xml version="1.0" encoding="utf-8"?>
<!-- Generator: Adobe Illustrator 19.1.0, SVG Export Plug-In . SVG Version: 6.00 Build 0)  -->
<svg version="1.1" id="Layer_1" xmlns="http://www.w3.org/2000/svg" xmlns:xlink="http://www.w3.org/1999/xlink" x="0px" y="0px"
	 viewBox="0 0 112.6 69" enable-background="new 0 0 112.6 69" xml:space="preserve">
<g>
	<path fill="#FFFFFF" d="M35.2,49.2c-5.5,0-9.9,4.4-9.9,9.9c0,5.5,4.4,9.9,9.9,9.9c5.5,0,9.9-4.4,9.9-9.9
		C45.1,53.7,40.7,49.2,35.2,49.2L35.2,49.2z M35.2,63.4c-2.4,0-4.3-1.9-4.3-4.3c0-2.4,1.9-4.3,4.3-4.3c2.4,0,4.3,1.9,4.3,4.3
		C39.5,61.5,37.6,63.4,35.2,63.4L35.2,63.4z M35.2,63.4"/>
	<path fill="#FFFFFF" d="M87.4,49.2c-5.5,0-9.9,4.4-9.9,9.9c0,5.5,4.4,9.9,9.9,9.9c5.5,0,9.9-4.4,9.9-9.9
		C97.3,53.7,92.8,49.2,87.4,49.2L87.4,49.2z M87.4,63.4c-2.4,0-4.3-1.9-4.3-4.3c0-2.4,1.9-4.3,4.3-4.3c2.4,0,4.3,1.9,4.3,4.3
		C91.7,61.5,89.7,63.4,87.4,63.4L87.4,63.4z M87.4,63.4"/>
	<path fill="#FFFFFF" d="M46.3,18.8c0,1.4-1.1,2.5-2.5,2.5H9c-1.4,0-2.5-1.1-2.5-2.5v-1.5c0-1.4,1.1-2.5,2.5-2.5h34.8
		c1.4,0,2.5,1.1,2.5,2.5V18.8z M46.3,18.8"/>
	<path fill="#FFFFFF" d="M106.7,33.6c-3.6-0.9-5.7-1.5-7.1-4.3l-4.8-9.6c-1.4-2.8-5.1-5-8.2-5h-6.5c0,0-0.9,0-0.9-0.9V5.7
		c0-3.1-1.8-5.7-5.5-5.7H20.6c-5.4,0-8,2.6-8,5.7v5.1c0,0,0,1.5,1.5,1.5h29.7c2.8,0,5,2.3,5,5v1.5c0,2.8-2.3,5-5,5H14.1
		c0,0-1.5-0.1-1.5,1.5v1.7c0,1.4,1.9,1.4,1.9,1.4h20c2.8,0,5,2.3,5,5V35c0,2.8-2.3,5-5,5H14.8c0,0-2.2,0-2.2,1.7V54
		c0,3.1,2.6,5.7,5.7,5.7h3.1c0.7,0,0.8-0.4,0.8-0.6c0-7.1,5.8-12.9,12.9-12.9c7.1,0,12.9,5.8,12.9,12.9c0,0.2-0.1,0.6,0.5,0.6H74
		c0.5,0,0.5-0.4,0.5-0.6c0-7.1,5.8-12.9,12.9-12.9s12.9,5.8,12.9,12.9c0,0.2,0,0.6,0.3,0.6h6.4c3.1,0,5.6-2.5,5.6-5.6V43.4
		C112.6,34.4,109.8,34.4,106.7,33.6L106.7,33.6z M96,33.1H80c-0.7,0-0.8-0.6-0.8-0.6V19.1c0,0,0-0.5,0.8-0.5h4.6c2.8,0,6,2,7.3,4.5
		l4.2,8.6c0.2,0.3,0.4,0.7,0.6,0.9C96.9,32.7,96.7,33.1,96,33.1L96,33.1z M96,33.1"/>
	<path fill="#FFFFFF" d="M37,35c0,1.4-1.1,2.5-2.5,2.5h-32C1.1,37.5,0,36.4,0,35v-1.5C0,32.1,1.1,31,2.5,31h32
		c1.4,0,2.5,1.1,2.5,2.5V35z M37,35"/>
</g>
</svg>
