<?xml version="1.0" encoding="utf-8"?>
<!-- Generator: Adobe Illustrator 19.1.0, SVG Export Plug-In . SVG Version: 6.00 Build 0)  -->
<svg version="1.1" id="Layer_1" xmlns="http://www.w3.org/2000/svg" xmlns:xlink="http://www.w3.org/1999/xlink" x="0px" y="0px"
	 viewBox="0 0 54.3 33.2" enable-background="new 0 0 54.3 33.2" xml:space="preserve">
<g>
	<path fill="#989898" d="M17,23.7c-2.6,0-4.8,2.1-4.8,4.8c0,2.6,2.1,4.8,4.8,4.8c2.6,0,4.8-2.1,4.8-4.8C21.7,25.9,19.6,23.7,17,23.7
		L17,23.7z M17,30.6c-1.1,0-2.1-0.9-2.1-2.1c0-1.1,0.9-2.1,2.1-2.1c1.1,0,2.1,0.9,2.1,2.1C19,29.6,18.1,30.6,17,30.6L17,30.6z
		 M17,30.6"/>
	<path fill="#989898" d="M42.1,23.7c-2.6,0-4.8,2.1-4.8,4.8c0,2.6,2.1,4.8,4.8,4.8c2.6,0,4.8-2.1,4.8-4.8
		C46.9,25.9,44.7,23.7,42.1,23.7L42.1,23.7z M42.1,30.6c-1.1,0-2.1-0.9-2.1-2.1c0-1.1,0.9-2.1,2.1-2.1c1.1,0,2.1,0.9,2.1,2.1
		C44.2,29.6,43.2,30.6,42.1,30.6L42.1,30.6z M42.1,30.6"/>
	<path fill="#989898" d="M22.3,9.1c0,0.7-0.5,1.2-1.2,1.2H4.3c-0.7,0-1.2-0.5-1.2-1.2V8.3c0-0.7,0.5-1.2,1.2-1.2h16.8
		c0.7,0,1.2,0.5,1.2,1.2V9.1z M22.3,9.1"/>
	<path fill="#989898" d="M51.4,16.2c-1.7-0.5-2.7-0.7-3.4-2.1l-2.3-4.6c-0.7-1.3-2.5-2.4-4-2.4h-3.1c0,0-0.4,0-0.4-0.4V2.7
		c0-1.5-0.9-2.7-2.7-2.7H9.9C7.3,0,6.1,1.2,6.1,2.7v2.4c0,0,0,0.7,0.7,0.7h14.3c1.3,0,2.4,1.1,2.4,2.4v0.7c0,1.3-1.1,2.4-2.4,2.4
		H6.8c0,0-0.7-0.1-0.7,0.7V13c0,0.7,0.9,0.7,0.9,0.7h9.6c1.3,0,2.4,1.1,2.4,2.4v0.7c0,1.3-1.1,2.4-2.4,2.4H7.2c0,0-1.1,0-1.1,0.8V26
		c0,1.5,1.2,2.7,2.7,2.7h1.5c0.3,0,0.4-0.2,0.4-0.3c0-3.4,2.8-6.2,6.2-6.2c3.4,0,6.2,2.8,6.2,6.2c0,0.1,0,0.3,0.2,0.3h12.2
		c0.2,0,0.2-0.2,0.2-0.3c0-3.4,2.8-6.2,6.2-6.2c3.4,0,6.2,2.8,6.2,6.2c0,0.1,0,0.3,0.1,0.3h3.1c1.5,0,2.7-1.2,2.7-2.7v-5.2
		C54.3,16.6,52.9,16.6,51.4,16.2L51.4,16.2z M46.3,15.9h-7.7c-0.3,0-0.4-0.3-0.4-0.3V9.2c0,0,0-0.2,0.4-0.2h2.2c1.3,0,2.9,1,3.5,2.1
		l2,4.1c0.1,0.2,0.2,0.3,0.3,0.4C46.7,15.8,46.6,15.9,46.3,15.9L46.3,15.9z M46.3,15.9"/>
	<path fill="#989898" d="M17.9,16.9c0,0.7-0.5,1.2-1.2,1.2H1.2c-0.7,0-1.2-0.5-1.2-1.2v-0.7c0-0.7,0.5-1.2,1.2-1.2h15.4
		c0.7,0,1.2,0.5,1.2,1.2V16.9z M17.9,16.9"/>
</g>
</svg>
