<?xml version="1.0" encoding="utf-8"?>
<!-- Generator: Adobe Illustrator 19.1.0, SVG Export Plug-In . SVG Version: 6.00 Build 0)  -->
<svg version="1.1" id="Layer_1" xmlns="http://www.w3.org/2000/svg" xmlns:xlink="http://www.w3.org/1999/xlink" x="0px" y="0px"
	 viewBox="0 0 398.7 160.9" enable-background="new 0 0 398.7 160.9" xml:space="preserve">
<g>
	<path fill="#FFFFFF" d="M19.7,53c0,7,1.1,13.3,3.2,18.9c2.1,5.6,5,10.3,8.7,14.1c3.7,3.9,8.1,6.8,13.1,8.8c5.1,2,10.5,3.1,16.4,3.1
		c3.5,0,6.9-0.7,10.1-2c3.3-1.4,6.3-3.1,9.1-5.3c2.8-2.2,5.3-4.6,7.5-7.4c2.2-2.8,4-5.5,5.5-8.4l7,4.5c-2.1,3.4-4.5,6.6-7.3,9.7
		c-2.8,3.1-6,5.9-9.7,8.2c-3.7,2.4-7.9,4.3-12.5,5.7c-4.6,1.4-9.8,2.2-15.6,2.2c-5.5,0-10.7-0.6-15.6-1.9c-4.9-1.3-9.4-3-13.5-5.3
		c-4.1-2.3-7.8-5-11-8.2c-3.2-3.2-6-6.7-8.2-10.6C4.7,75.2,3,71,1.8,66.6C0.6,62.2,0,57.7,0,53c0-4.7,0.6-9.3,1.8-13.7
		c1.2-4.4,3-8.6,5.2-12.5c2.3-3.9,5.1-7.5,8.4-10.7c3.3-3.3,7-6,11.2-8.4c4.1-2.3,8.7-4.1,13.6-5.4C45.2,1,50.4,0.3,56,0.3
		c5.3,0,10.2,0.7,14.7,2.2c4.5,1.4,8.6,3.3,12.3,5.7c3.7,2.4,7,5.1,9.9,8.2c2.9,3.1,5.3,6.3,7.4,9.7L93,31
		c-4.2-8.1-8.9-14-14.1-17.8c-5.2-3.8-11.1-5.7-17.8-5.7c-5.8,0-11.2,1.1-16.2,3.2c-5,2.1-9.4,5.1-13.1,9.1s-6.7,8.7-8.8,14.3
		S19.7,46,19.7,53z"/>
	<path fill="#FFFFFF" d="M186.4,103c-5,1.4-9.9,2.2-14.8,2.3c-4.9,0.1-9.6-0.4-14.2-1.5c-4.5-1.1-8.9-2.7-13-4.9
		c-4.1-2.2-7.8-4.8-11.2-8c-3.3-3.1-6.3-6.7-8.7-10.6c-2.5-4-4.4-8.3-5.8-13c-1.3-4.6-2-9.2-1.9-13.8c0-4.6,0.6-9.1,1.8-13.4
		c1.2-4.3,3-8.5,5.3-12.4c2.4-3.9,5.2-7.6,8.5-10.8c3.3-3.3,7-6.2,11.3-8.7c4.2-2.5,8.8-4.4,13.8-5.9c5-1.4,9.9-2.2,14.8-2.3
		c4.9-0.1,9.6,0.3,14.1,1.4c4.5,1,8.8,2.6,12.9,4.7c4.1,2.1,7.8,4.7,11.1,7.7c3.3,3,6.2,6.5,8.7,10.4c2.5,3.9,4.4,8.1,5.7,12.7
		c1.3,4.6,2,9.3,2,14c0,4.7-0.6,9.3-1.7,13.7c-1.2,4.4-2.9,8.7-5.2,12.7c-2.3,4-5.1,7.7-8.4,11.1c-3.3,3.3-7,6.3-11.2,8.8
		C196,99.6,191.4,101.6,186.4,103z M185.1,98.2c5.5-1.6,10-4.1,13.6-7.6c3.6-3.5,6.2-7.7,7.9-12.7c1.7-4.9,2.5-10.4,2.4-16.5
		c-0.1-6.1-1.1-12.4-3.1-19.1c-1.9-6.6-4.4-12.4-7.5-17.5c-3.1-5.1-6.6-9.2-10.6-12.3c-4-3.2-8.5-5.2-13.3-6.2
		c-4.9-1-10-0.7-15.5,0.9c-5.6,1.6-10.2,4.1-13.9,7.6c-3.6,3.4-6.3,7.6-8,12.4c-1.7,4.8-2.5,10.2-2.4,16.1c0.1,5.9,1.1,12.2,3,18.7
		c1.9,6.7,4.4,12.6,7.5,17.8c3.1,5.2,6.6,9.5,10.7,12.7c4,3.3,8.5,5.5,13.4,6.5C174.2,100.1,179.4,99.8,185.1,98.2z"/>
	<path fill="#FFFFFF" d="M248,2.6h16.8v93.6h50.4v6.5H248V2.6z"/>
	<path fill="#FFFFFF" d="M398.7,2.6v6.5H346v35.8h35.3v6.5H346v44.9h52.7v6.5h-69.5V2.6H398.7z"/>
	<g>
		<g>
			<path fill="#FFFFFF" d="M33.2,145c0,1.4,0.2,2.7,0.6,3.9s1,2.1,1.8,2.9s1.6,1.4,2.7,1.8s2.1,0.6,3.3,0.6c0.7,0,1.4-0.1,2.1-0.4
				s1.3-0.6,1.9-1.1s1.1-0.9,1.5-1.5s0.8-1.1,1.1-1.7l1.4,0.9c-0.4,0.7-0.9,1.3-1.5,2s-1.2,1.2-2,1.7s-1.6,0.9-2.5,1.2
				s-2,0.4-3.2,0.4c-1.1,0-2.2-0.1-3.2-0.4s-1.9-0.6-2.7-1.1s-1.6-1-2.2-1.7s-1.2-1.4-1.7-2.2s-0.8-1.6-1-2.5s-0.4-1.8-0.4-2.8
				s0.1-1.9,0.4-2.8s0.6-1.8,1.1-2.5s1-1.5,1.7-2.2s1.4-1.2,2.3-1.7s1.8-0.8,2.8-1.1s2.1-0.4,3.2-0.4c1.1,0,2.1,0.1,3,0.4
				s1.7,0.7,2.5,1.2s1.4,1,2,1.7s1.1,1.3,1.5,2l-1.5,1c-0.9-1.7-1.8-2.9-2.9-3.6s-2.3-1.2-3.6-1.2c-1.2,0-2.3,0.2-3.3,0.6
				s-1.9,1-2.7,1.8s-1.4,1.8-1.8,2.9S33.2,143.5,33.2,145z"/>
			<path fill="#FFFFFF" d="M77.1,155.6c-1.1,0-2.1-0.1-3-0.4s-1.9-0.6-2.7-1.1s-1.6-1-2.3-1.7s-1.3-1.4-1.7-2.2s-0.8-1.7-1.1-2.6
				s-0.4-1.9-0.4-2.9c0-1,0.1-1.9,0.4-2.8s0.6-1.7,1.1-2.5s1.1-1.5,1.7-2.1s1.4-1.2,2.3-1.6s1.7-0.8,2.7-1.1s2-0.4,3-0.4
				s2.1,0.1,3,0.4s1.9,0.6,2.7,1.1s1.6,1,2.3,1.6s1.3,1.4,1.7,2.1s0.8,1.6,1.1,2.5s0.4,1.8,0.4,2.8c0,1-0.1,1.9-0.4,2.9
				s-0.6,1.8-1.1,2.6s-1.1,1.5-1.7,2.2s-1.4,1.2-2.3,1.7s-1.7,0.8-2.7,1.1S78.2,155.6,77.1,155.6z M77.1,154.6
				c1.2,0,2.2-0.2,3.1-0.7s1.7-1.2,2.3-2s1.1-1.9,1.4-3.1s0.5-2.5,0.5-3.9c0-1.4-0.2-2.7-0.5-3.8s-0.8-2.2-1.4-3s-1.4-1.5-2.3-2
				s-1.9-0.7-3.1-0.7c-1.2,0-2.2,0.2-3.1,0.7s-1.7,1.1-2.3,2s-1.1,1.9-1.4,3s-0.5,2.4-0.5,3.8c0,1.4,0.2,2.7,0.5,3.9
				s0.8,2.2,1.4,3.1s1.4,1.5,2.3,2S75.9,154.6,77.1,154.6z"/>
			<path fill="#FFFFFF" d="M105.5,134.7h3.4v19.1h10.3v1.3h-13.7V134.7z"/>
			<path fill="#FFFFFF" d="M135,134.7h3.4v19.1h10.3v1.3H135V134.7z"/>
			<path fill="#FFFFFF" d="M178.6,134.7v1.3h-10.8v7.3h7.2v1.3h-7.2v9.2h10.8v1.3h-14.2v-20.4H178.6z"/>
			<path fill="#FFFFFF" d="M198.5,145c0,1.4,0.2,2.7,0.6,3.9s1,2.1,1.8,2.9s1.6,1.4,2.7,1.8c1,0.4,2.1,0.6,3.3,0.6
				c0.7,0,1.4-0.1,2.1-0.4s1.3-0.6,1.9-1.1c0.6-0.4,1.1-0.9,1.5-1.5s0.8-1.1,1.1-1.7l1.4,0.9c-0.4,0.7-0.9,1.3-1.5,2
				c-0.6,0.6-1.2,1.2-2,1.7s-1.6,0.9-2.5,1.2s-2,0.4-3.2,0.4c-1.1,0-2.2-0.1-3.2-0.4s-1.9-0.6-2.7-1.1c-0.8-0.5-1.6-1-2.2-1.7
				c-0.7-0.7-1.2-1.4-1.7-2.2c-0.5-0.8-0.8-1.6-1-2.5s-0.4-1.8-0.4-2.8s0.1-1.9,0.4-2.8c0.2-0.9,0.6-1.8,1.1-2.5s1-1.5,1.7-2.2
				s1.4-1.2,2.3-1.7s1.8-0.8,2.8-1.1s2.1-0.4,3.2-0.4c1.1,0,2.1,0.1,3,0.4s1.7,0.7,2.5,1.2c0.8,0.5,1.4,1,2,1.7s1.1,1.3,1.5,2
				l-1.5,1c-0.9-1.7-1.8-2.9-2.9-3.6s-2.3-1.2-3.6-1.2c-1.2,0-2.3,0.2-3.3,0.6s-1.9,1-2.7,1.8s-1.4,1.8-1.8,2.9
				S198.5,143.5,198.5,145z"/>
			<path fill="#FFFFFF" d="M248.3,134.7v1.3h-7.4v19.1h-3.4V136h-7.4v-1.3H248.3z"/>
			<path fill="#FFFFFF" d="M264.3,134.7h3.4v20.4h-3.4V134.7z"/>
			<path fill="#FFFFFF" d="M296.1,155.6c-1.1,0-2.1-0.1-3-0.4s-1.9-0.6-2.7-1.1s-1.6-1-2.3-1.7s-1.3-1.4-1.7-2.2s-0.8-1.7-1.1-2.6
				s-0.4-1.9-0.4-2.9c0-1,0.1-1.9,0.4-2.8s0.6-1.7,1.1-2.5s1.1-1.5,1.7-2.1s1.4-1.2,2.3-1.6s1.7-0.8,2.7-1.1s2-0.4,3-0.4
				s2.1,0.1,3,0.4s1.9,0.6,2.7,1.1s1.6,1,2.3,1.6s1.3,1.4,1.7,2.1s0.8,1.6,1.1,2.5s0.4,1.8,0.4,2.8c0,1-0.1,1.9-0.4,2.9
				s-0.6,1.8-1.1,2.6s-1.1,1.5-1.7,2.2s-1.4,1.2-2.3,1.7s-1.7,0.8-2.7,1.1S297.2,155.6,296.1,155.6z M296.1,154.6
				c1.2,0,2.2-0.2,3.1-0.7s1.7-1.2,2.3-2c0.6-0.9,1.1-1.9,1.4-3.1s0.5-2.5,0.5-3.9c0-1.4-0.2-2.7-0.5-3.8s-0.8-2.2-1.4-3
				c-0.6-0.8-1.4-1.5-2.3-2s-1.9-0.7-3.1-0.7c-1.2,0-2.2,0.2-3.1,0.7c-0.9,0.5-1.7,1.1-2.3,2s-1.1,1.9-1.4,3
				c-0.3,1.2-0.5,2.4-0.5,3.8c0,1.4,0.2,2.7,0.5,3.9c0.3,1.2,0.8,2.2,1.4,3.1s1.4,1.5,2.3,2C293.9,154.3,295,154.6,296.1,154.6z"/>
			<path fill="#FFFFFF" d="M324.5,134.7h1.9l13.4,14.9h0.1v-14.9h1.5v20.9h-0.8L326.2,139h-0.1v16.1h-1.5V134.7z"/>
			<path fill="#FFFFFF" d="M365.1,154.3c0.5,0,1-0.1,1.5-0.2c0.5-0.1,0.9-0.3,1.3-0.6c0.4-0.3,0.7-0.6,0.9-1s0.4-0.9,0.4-1.4
				c0-0.6-0.2-1.2-0.5-1.7s-0.7-0.9-1.3-1.3c-0.5-0.4-1.1-0.8-1.8-1.1s-1.4-0.7-2.1-1.1s-1.4-0.7-2.1-1.1s-1.3-0.8-1.8-1.3
				c-0.5-0.5-0.9-1-1.3-1.6s-0.5-1.3-0.5-2.1s0.1-1.5,0.4-2.2s0.7-1.2,1.3-1.7s1.3-0.9,2.1-1.1s1.8-0.4,2.8-0.4
				c1.9,0,3.5,0.4,4.6,1.2c1.1,0.8,1.9,2,2.4,3.5l-1.8,0.8c-0.2-0.6-0.5-1.2-0.8-1.7c-0.3-0.5-0.7-1-1.1-1.3c-0.4-0.4-1-0.7-1.5-0.9
				s-1.2-0.3-1.9-0.3c-0.6,0-1.2,0.1-1.7,0.3c-0.5,0.2-0.9,0.4-1.2,0.7s-0.6,0.6-0.7,1c-0.2,0.4-0.2,0.7-0.2,1.1
				c0,0.5,0.2,1,0.5,1.5s0.8,0.9,1.3,1.3s1.2,0.8,1.8,1.1s1.4,0.7,2.1,1.1c0.7,0.4,1.4,0.8,2.1,1.2s1.3,0.9,1.8,1.3s1,1,1.3,1.6
				s0.5,1.2,0.5,1.9c0,0.8-0.2,1.6-0.5,2.3c-0.3,0.7-0.8,1.3-1.4,1.9s-1.4,1-2.3,1.3c-0.9,0.3-2,0.5-3.2,0.5c-1,0-1.9-0.1-2.6-0.3
				s-1.5-0.5-2-0.9c-0.6-0.4-1.1-0.9-1.5-1.5s-0.8-1.3-1-2l1.8-0.8c0.2,0.7,0.5,1.3,0.9,1.8s0.8,1,1.3,1.3c0.5,0.4,1,0.6,1.6,0.8
				S364.4,154.3,365.1,154.3z"/>
		</g>
	</g>
</g>
</svg>
