<?xml version="1.0" encoding="utf-8"?>
<!-- Generator: Adobe Illustrator 19.1.0, SVG Export Plug-In . SVG Version: 6.00 Build 0)  -->
<svg version="1.1" id="Layer_1" xmlns="http://www.w3.org/2000/svg" xmlns:xlink="http://www.w3.org/1999/xlink" x="0px" y="0px"
	 viewBox="0 0 55.6 37" enable-background="new 0 0 55.6 37" xml:space="preserve">
<g>
	<g>
		<path fill="#B4B4B4" d="M27.8,0C9.4,0,0,18.5,0,18.5S7.1,37,27.8,37c18.7,0,27.8-18.4,27.8-18.4S46.4,0,27.8,0z M27.8,30.1
			c-6.7,0-11.6-5.1-11.6-11.6c0-6.5,4.9-11.6,11.6-11.6S39.4,12,39.4,18.5C39.4,25,34.5,30.1,27.8,30.1z M27.8,11.6
			c-3.8,0-6.9,3.2-6.9,6.9c0,3.7,3.1,6.9,6.9,6.9s6.9-3.2,6.9-6.9C34.8,14.8,31.7,11.6,27.8,11.6z"/>
	</g>
</g>
</svg>
