<?xml version="1.0" encoding="utf-8"?>
<!-- Generator: Adobe Illustrator 19.1.0, SVG Export Plug-In . SVG Version: 6.00 Build 0)  -->
<svg version="1.1" id="Layer_1" xmlns="http://www.w3.org/2000/svg" xmlns:xlink="http://www.w3.org/1999/xlink" x="0px" y="0px"
	 viewBox="0 0 41.9 58.9" enable-background="new 0 0 41.9 58.9" xml:space="preserve">
<g>
	<path fill="#676767" d="M41.6,41.3c-0.2-0.3-0.6-0.4-0.9-0.4h-6.7c-0.4,0-0.7,0.1-0.9,0.4c-0.2,0.3-0.4,0.6-0.4,0.9v7.6H15.6V33.9
		h12.6c0.4,0,0.7-0.1,0.9-0.4c0.3-0.3,0.4-0.6,0.4-0.9v-5.5c0-0.4-0.1-0.7-0.4-1c-0.3-0.3-0.6-0.4-0.9-0.4H15.6v-9
		c0-2.1,0.7-3.8,2.1-5.1c1.4-1.3,3.3-2,5.6-2c1.2,0,2.5,0.3,3.8,0.8c1.3,0.5,2.3,0.9,2.8,1.3c0.6,0.4,0.9,0.7,1.1,0.8
		c0.3,0.3,0.6,0.3,0.9,0.3c0.4,0,0.7-0.2,0.9-0.5L37.2,7c0.2-0.3,0.3-0.6,0.3-0.9c0-0.3-0.2-0.6-0.4-0.9C33,1.7,28.4,0,23.3,0
		c-5.2,0-9.6,1.5-13,4.6c-3.4,3.1-5.1,7-5.1,11.8v9.3H1.3c-0.4,0-0.7,0.1-0.9,0.4c-0.2,0.3-0.4,0.6-0.4,1v5.5c0,0.4,0.1,0.7,0.4,0.9
		c0.2,0.3,0.6,0.4,0.9,0.4h3.9v16h-4c-0.4,0-0.7,0.1-0.9,0.4c-0.3,0.3-0.4,0.6-0.4,0.9v6.3c0,0.4,0.1,0.7,0.4,1
		c0.2,0.3,0.6,0.4,0.9,0.4h39.4c0.4,0,0.7-0.1,0.9-0.4c0.2-0.3,0.4-0.6,0.4-1V42.2C41.9,41.8,41.8,41.5,41.6,41.3L41.6,41.3z
		 M41.6,41.3"/>
</g>
</svg>
