<?xml version="1.0" encoding="utf-8"?>
<!-- Generator: Adobe Illustrator 19.1.0, SVG Export Plug-In . SVG Version: 6.00 Build 0)  -->
<svg version="1.1" id="Layer_1" xmlns="http://www.w3.org/2000/svg" xmlns:xlink="http://www.w3.org/1999/xlink" x="0px" y="0px"
	 viewBox="0 0 17 39.6" enable-background="new 0 0 17 39.6" xml:space="preserve">
<path fill="#B4B4B4" d="M11.3,33.4c1.8-0.9,2.9-1.5,4.1-1.9c0.5-0.2,1.1,0,1.6,0c0,0.6,0.2,1.6-0.2,1.8c-3.3,2.1-6.5,4.4-10.1,5.9
	c-2.8,1.2-4.7-0.4-4.2-3.5c0.6-4.1,1.7-8.1,2.5-12.1c0.2-0.9,0.3-1.9,0.5-3.4C3.6,21,2.2,21.6,0,22.5c0.2-1.2,0-2.4,0.4-2.7
	c3.5-2.1,7-4.3,10.8-5.8c2.7-1.1,4.4,0.6,3.7,3.6c-0.9,4.2-2,8.4-3.1,12.5C11.7,31,11.6,31.8,11.3,33.4z"/>
<path fill="#B4B4B4" d="M15.4,3.9C15.4,6.7,13,9.1,10,9.1c-2.5,0-4.1-1.5-4.1-3.9c0-2.6,2.5-5.1,5.2-5.2C13.5-0.1,15.3,1.5,15.4,3.9
	z"/>
</svg>
